# xmcd
#
# Track frame offsets:
#	150
#	21326
#	38438
#	56734
#	73840
#	91160
#	108694
#	124111
#	142634
#	159299
#	180035
#	189015
#
# Disc length: 2908 seconds
#
# Revision: 0
# Processed by: cddbd v1.5.2PL0 Copyright (c) Steve Scherf et al.
# Submitted via: EasyCDDAExtractor 12.1.0.1
#
DISCID=8c0b5a0c
DTITLE=Anthony David - As Above So Below
DYEAR=2011
DGENRE=R&B
TTITLE0=As Above So Below
TTITLE1=Let Me In
TTITLE2=4Evermore (feat Algebra and Phonte) 
TTITLE3=Reach Ya
TTITLE4=What God Said
TTITLE5=Rule The World
TTITLE6=Girlfriend
TTITLE7=Keep You Around
TTITLE8=Getaround
TTITLE9=Body Language
TTITLE10=As Above So Below (outro)
TTITLE11=Backstreet
EXTD=
EXTT0=
EXTT1=
EXTT2=
EXTT3=
EXTT4=
EXTT5=
EXTT6=
EXTT7=
EXTT8=
EXTT9=
EXTT10=
EXTT11=
PLAYORDER=
